<?xml version="1.0" encoding="utf-8"?><svg viewBox="0 0 66 65" xmlns="http://www.w3.org/2000/svg" xmlns:xlink="http://www.w3.org/1999/xlink"><style>:root>svg{display:none}:root>svg:target{display:block}</style><svg fill="none" viewBox="0 0 5 10" id="icon-arrow" xmlns="http://www.w3.org/2000/svg"><path d="M.159 9.838a.533.533 0 0 0 .766 0l3.599-3.682a1.69 1.69 0 0 0 0-2.35L.965.162a.533.533 0 0 0-.766 0 .563.563 0 0 0 0 .784l3.56 3.641a.563.563 0 0 1 0 .784L.16 9.054a.563.563 0 0 0 0 .784Z" fill="#151618"/></svg><svg fill="none" viewBox="0 0 18 22" id="icon-client" xmlns="http://www.w3.org/2000/svg"><path fill-rule="evenodd" clip-rule="evenodd" d="M9 11c2.761 0 5-2.462 5-5.5S11.761 0 9 0 4 2.462 4 5.5 6.239 11 9 11Zm0-2.2c-1.657 0-3-1.477-3-3.3 0-1.823 1.343-3.3 3-3.3s3 1.477 3 3.3c0 1.823-1.343 3.3-3 3.3ZM16.103 13.109a2.608 2.608 0 0 0-3.187-.41c-.19.113-.358.216-.512.312-.41.253-.729.449-1.139.617C10.75 13.84 10.084 14 9 14c-1.073 0-1.75-.15-2.274-.355-.462-.181-.828-.408-1.31-.707-.093-.059-.192-.12-.296-.184a2.628 2.628 0 0 0-3.256.388c-.38.384-.824.88-1.18 1.42C.347 15.079 0 15.765 0 16.5V19a3 3 0 0 0 3 3h12a3 3 0 0 0 3-3v-2.5c0-.746-.355-1.44-.7-1.96a9.699 9.699 0 0 0-1.197-1.431Zm-2.166 1.31a.608.608 0 0 1 .75.101c.334.337.685.732.946 1.125.278.42.367.707.367.855V19a1 1 0 0 1-1 1H3a1 1 0 0 1-1-1v-2.5c0-.145.085-.427.356-.839.254-.386.598-.777.93-1.112a.629.629 0 0 1 .788-.09c.083.05.167.103.253.157.482.301 1.022.638 1.671.892.795.31 1.726.492 3.002.492 1.3 0 2.231-.195 3.025-.522.576-.236 1.083-.55 1.53-.827.133-.082.26-.16.382-.232Z" fill="#151618"/></svg><svg fill="none" viewBox="0 0 60 60" id="icon-globe" xmlns="http://www.w3.org/2000/svg"><path d="m25.556.154-.014-.02-.037.029C11.17 1.687 0 13.828 0 28.589c0 6.61 2.242 12.696 6.005 17.54v.005h.006a28.528 28.528 0 0 0 8.756 7.495 28.491 28.491 0 0 0 11.003 3.414c.134-1.36.466-2.784.963-4.222a24.197 24.197 0 0 1-16.08-7.822c.158-.686.229-1.484.286-2.176l.026-.337c.051-.63.1-1.235.18-1.847.2-1.507.542-2.513 1.076-3.082.685-.735 1.388-.858 2.858-1.118l.266-.048c.754-.132 1.762-.335 2.733-.864 1.036-.566 1.913-1.43 2.572-2.701.666-1.281.617-2.602.434-3.645a20.02 20.02 0 0 0-.656-2.468l-.132-.423c-.585-1.91-.656-2.839-.174-3.573.526-.8 1.245-.984 3.118-1.47l.243-.06c1.902-.492 4.477-1.315 5.968-4.497 1.616-3.445.705-7.33-.286-9.966a25.408 25.408 0 0 0-1.065-2.43c.152-.006.303-.006.454-.006a24.136 24.136 0 0 1 12.95 3.745 119.92 119.92 0 0 1-2.102 2.716c-1.799 2.25-3.826 4.566-5.208 5.604a3.964 3.964 0 0 0-1.388 1.852 4.172 4.172 0 0 0-.157 2.099c.2 1.19.83 2.304 1.39 3.156.466.712 1.014 1.43 1.474 2.035l.314.41c.266.357.485.651.648.906.083.123.143.223.183.297.04.071.054.109.057.111.114.315.237.83.38 1.544l.063.303c1.267-.566 2.64-1 4.111-1.272a14.787 14.787 0 0 0-.536-2.058c-.314-.85-.997-1.761-1.488-2.413-.123-.163-.247-.325-.371-.486a30.656 30.656 0 0 1-1.254-1.73c-.442-.674-.657-1.14-.728-1.424 1.856-1.435 4.135-4.105 5.854-6.252a107.34 107.34 0 0 0 2.161-2.799 24.25 24.25 0 0 1 7.881 16.633 34.76 34.76 0 0 1 4.312.603C56.717 12.413 44.085 0 28.554 0c-1.01 0-2.013.051-2.998.154Zm-18.6 39.53a24.333 24.333 0 0 1 6.556-30.17 24.267 24.267 0 0 1 9.994-4.7 21.775 21.775 0 0 1 1.653 3.42c.897 2.387 1.257 4.834.417 6.632-.642 1.367-1.556 1.753-3.164 2.167l-.462.115c-1.52.368-3.915.946-5.406 3.21-1.716 2.607-.87 5.463-.342 7.19l.171.55c.228.728.4 1.286.491 1.817.109.62.029.847-.011.93-.286.551-.571.777-.823.914-.314.172-.725.286-1.433.41-.114.022-.24.042-.371.062-1.322.217-3.424.563-5.134 2.401-1.388 1.487-1.893 3.46-2.136 5.052Zm21.618 18.08c.171-2.759 1.414-6.124 3.521-9.295a22.944 22.944 0 0 1 2.53-3.482 25.394 25.394 0 0 1 12.838-7.861 1.429 1.429 0 0 0 1.04-1.736 1.43 1.43 0 0 0-1.734-1.04 28.251 28.251 0 0 0-14.291 8.75 26.919 26.919 0 0 0-2.074 2.697 10.194 10.194 0 0 1-.422-2.914c0-2.621 1.333-5.469 3.446-7.727a15.202 15.202 0 0 1 9.123-4.672c7.996-1.058 12.958-.171 15.885.65a2.141 2.141 0 0 1 1.538 1.732 2.146 2.146 0 0 1-.935 2.121c-.163.109-.426.372-.743.972-.374.757-.68 1.547-.913 2.359-.249.812-.486 1.69-.743 2.644l-.165.606c-.317 1.172-.669 2.43-1.091 3.677-.834 2.464-2.01 5.094-3.99 7.113-2.052 2.095-4.84 3.402-8.563 3.402-3.795 0-6.444-1.541-8.138-3.314-1.153 2.116-1.753 4.108-1.844 5.578a2.145 2.145 0 0 1-2.265 1.972 2.14 2.14 0 0 1-2.01-2.232Z" fill="#754E29"/></svg><svg fill="none" viewBox="0 0 60 60" id="icon-leaf" xmlns="http://www.w3.org/2000/svg"><path d="M50.886 16.485c.002 1.52-.21 3.032-.629 4.495h4.922c2.664 0 4.821 2.128 4.821 4.754v14.728a19.29 19.29 0 0 1-3.017 10.35A19.66 19.66 0 0 1 48.852 58a19.983 19.983 0 0 1-10.759 1.827 19.893 19.893 0 0 1-10.098-4.091l-3.6 3.549a2.278 2.278 0 0 1-1.627.715 2.304 2.304 0 0 1-1.651-.658 2.246 2.246 0 0 1-.667-1.63 2.223 2.223 0 0 1 .725-1.605l3.597-3.551a19.403 19.403 0 0 1-2.899-4.96 18.47 18.47 0 0 1-8.009-.16 18.326 18.326 0 0 1-7.166-3.532 18.021 18.021 0 0 1-4.94-6.222A17.783 17.783 0 0 1 0 29.972V16.526c0-2.505 2.06-4.537 4.6-4.537h13.497c.993-3.453 3.1-6.491 6.003-8.655A16.865 16.865 0 0 1 34.177 0h12.334c2.416 0 4.375 1.933 4.375 4.316v12.169ZM22.7 12.535a18.365 18.365 0 0 1 6.91 3.389 18.074 18.074 0 0 1 4.874 5.902 19.99 19.99 0 0 1 5.77-.846h5.194a11.85 11.85 0 0 0 .881-4.495V4.495H34.177c-2.522 0-4.981.775-7.037 2.215a12.012 12.012 0 0 0-4.44 5.824Zm8.546 39.994a15.366 15.366 0 0 0 15.86 1.308 15.113 15.113 0 0 0 6.086-5.524 14.836 14.836 0 0 0 2.251-7.85v-14.73a.254.254 0 0 0-.076-.181.26.26 0 0 0-.185-.076H40.253c-2.81 0-5.564.769-7.957 2.221a15.065 15.065 0 0 0-5.6 6.005 14.814 14.814 0 0 0 1.326 15.647l12.9-12.723a2.279 2.279 0 0 1 1.626-.715 2.305 2.305 0 0 1 1.652.658 2.245 2.245 0 0 1 .667 1.629 2.223 2.223 0 0 1-.725 1.605L31.246 52.529Zm-10.74-12.067c0-1.774.243-3.495.693-5.128l-8.379-8.27a2.248 2.248 0 0 1-.725-1.604 2.221 2.221 0 0 1 .667-1.63 2.282 2.282 0 0 1 1.652-.657 2.305 2.305 0 0 1 1.627.715l7.041 6.944a19.709 19.709 0 0 1 7.216-7.2 13.566 13.566 0 0 0-5.03-5.224 13.81 13.81 0 0 0-7.04-1.923H4.584l-.015.012a.064.064 0 0 0-.009.015l-.003.014v13.446c0 1.979.44 3.933 1.292 5.724A13.512 13.512 0 0 0 9.48 40.34a13.738 13.738 0 0 0 5.286 2.683c1.94.5 3.968.574 5.94.216-.133-.92-.2-1.847-.2-2.776Z" fill="#754E29"/></svg><svg fill="none" viewBox="0 0 22 23" id="icon-search" xmlns="http://www.w3.org/2000/svg"><path fill-rule="evenodd" clip-rule="evenodd" d="M16.04 15.124a9.004 9.004 0 1 0-1.415 1.415l5.667 5.668a1 1 0 0 0 1.415-1.415l-5.668-5.668Zm-7.036 1.393a7.013 7.013 0 1 1 0-14.026 7.013 7.013 0 0 1 0 14.026Z" fill="#151618"/></svg><svg fill="none" viewBox="0 0 66 65" id="icon-shipment" xmlns="http://www.w3.org/2000/svg"><path d="M29.763 3.749A7.17 7.17 0 0 1 33 2.983a7.17 7.17 0 0 1 3.237.766l25.05 12.705c.519.264.952.65 1.253 1.117.301.468.46 1 .46 1.543v25.067a5.69 5.69 0 0 1-.922 3.086 6.43 6.43 0 0 1-2.508 2.234l-23.333 11.84a7.17 7.17 0 0 1-3.237.767 7.17 7.17 0 0 1-3.237-.766L6.43 49.502a6.43 6.43 0 0 1-2.508-2.233A5.69 5.69 0 0 1 3 44.184v-25.07c0-.542.159-1.075.46-1.543a3.214 3.214 0 0 1 1.253-1.117l25.05-12.705Z" stroke="#754E29" stroke-width="4.167" stroke-linecap="round" stroke-linejoin="round"/><path d="m3 17.325 30 15.22m0 0 30-15.22m-30 15.22v30.438" stroke="#754E29" stroke-width="4.167" stroke-linejoin="round"/><path d="m18 24.935 30-15.22M13 33.543l10 5.089" stroke="#754E29" stroke-width="4.167" stroke-linecap="round" stroke-linejoin="round"/></svg><svg fill="none" viewBox="0 0 20 22" id="icon-shop" xmlns="http://www.w3.org/2000/svg"><path fill-rule="evenodd" clip-rule="evenodd" d="m14.592 5-.06-.243c-.267-1.056-.689-2.203-1.376-3.107C12.447.718 11.412 0 10 0 8.588 0 7.553.718 6.844 1.65c-.687.904-1.109 2.051-1.377 3.107L5.408 5H3.786C2.184 5 .857 6.225.75 7.8l-.743 11C-.11 20.532 1.282 22 3.042 22h13.916c1.76 0 3.152-1.468 3.035-3.2l-.743-11C19.143 6.225 17.816 5 16.214 5h-1.622Zm-8.648 5a.986.986 0 0 0 1.014-1.002 6.786 6.786 0 0 1 .007-.306A18.074 18.074 0 0 1 7.107 7h5.786a18.849 18.849 0 0 1 .149 2s0 1 1.014 1 1.014-1.001 1.014-1.001l-.001-.106A20.05 20.05 0 0 0 14.936 7h1.278c.534 0 .977.408 1.012.933l.744 11A1.006 1.006 0 0 1 16.958 20H3.042c-.587 0-1.05-.49-1.012-1.067l.744-11A1.008 1.008 0 0 1 3.786 7h1.278a20.98 20.98 0 0 0-.133 1.893v.104C4.928 9.567 5.364 10 5.943 10ZM7.5 5h5.002c-.234-.847-.553-1.605-.967-2.15C11.102 2.282 10.616 2 10 2s-1.102.282-1.534.85C8.052 3.395 7.734 4.153 7.5 5Z" fill="#151618"/></svg><svg fill="none" viewBox="0 0 60 60" id="icon-support" xmlns="http://www.w3.org/2000/svg"><path d="M30 0C13.458 0 0 13.458 0 30v12.429C0 45.501 2.691 48 6 48h3a3 3 0 0 0 3-3V29.571a3 3 0 0 0-3-3H6.276C7.944 14.961 17.934 6 30 6s22.056 8.961 23.724 20.571H51a3 3 0 0 0-3 3V48c0 3.309-2.691 6-6 6h-6v-3H24v9h18c6.618 0 12-5.382 12-12 3.309 0 6-2.499 6-5.571V30C60 13.458 46.542 0 30 0Z" fill="#754E29"/></svg></svg>