<?xml version="1.0" encoding="utf-8"?><svg viewBox="0 0 22 23" xmlns="http://www.w3.org/2000/svg" xmlns:xlink="http://www.w3.org/1999/xlink"><style>:root>svg{display:none}:root>svg:target{display:block}</style><svg fill="none" viewBox="0 0 5 10" id="icon-arrow" xmlns="http://www.w3.org/2000/svg"><path d="M.159 9.838a.533.533 0 0 0 .766 0l3.599-3.682a1.69 1.69 0 0 0 0-2.35L.965.162a.533.533 0 0 0-.766 0 .563.563 0 0 0 0 .784l3.56 3.641a.563.563 0 0 1 0 .784L.16 9.054a.563.563 0 0 0 0 .784Z" fill="#151618"/></svg><svg fill="none" viewBox="0 0 18 22" id="icon-client" xmlns="http://www.w3.org/2000/svg"><path fill-rule="evenodd" clip-rule="evenodd" d="M9 11c2.761 0 5-2.462 5-5.5S11.761 0 9 0 4 2.462 4 5.5 6.239 11 9 11Zm0-2.2c-1.657 0-3-1.477-3-3.3 0-1.823 1.343-3.3 3-3.3s3 1.477 3 3.3c0 1.823-1.343 3.3-3 3.3ZM16.103 13.109a2.608 2.608 0 0 0-3.187-.41c-.19.113-.358.216-.512.312-.41.253-.729.449-1.139.617C10.75 13.84 10.084 14 9 14c-1.073 0-1.75-.15-2.274-.355-.462-.181-.828-.408-1.31-.707-.093-.059-.192-.12-.296-.184a2.628 2.628 0 0 0-3.256.388c-.38.384-.824.88-1.18 1.42C.347 15.079 0 15.765 0 16.5V19a3 3 0 0 0 3 3h12a3 3 0 0 0 3-3v-2.5c0-.746-.355-1.44-.7-1.96a9.699 9.699 0 0 0-1.197-1.431Zm-2.166 1.31a.608.608 0 0 1 .75.101c.334.337.685.732.946 1.125.278.42.367.707.367.855V19a1 1 0 0 1-1 1H3a1 1 0 0 1-1-1v-2.5c0-.145.085-.427.356-.839.254-.386.598-.777.93-1.112a.629.629 0 0 1 .788-.09c.083.05.167.103.253.157.482.301 1.022.638 1.671.892.795.31 1.726.492 3.002.492 1.3 0 2.231-.195 3.025-.522.576-.236 1.083-.55 1.53-.827.133-.082.26-.16.382-.232Z" fill="#151618"/></svg><svg fill="none" viewBox="0 0 22 23" id="icon-search" xmlns="http://www.w3.org/2000/svg"><path fill-rule="evenodd" clip-rule="evenodd" d="M16.04 15.124a9.004 9.004 0 1 0-1.415 1.415l5.667 5.668a1 1 0 0 0 1.415-1.415l-5.668-5.668Zm-7.036 1.393a7.013 7.013 0 1 1 0-14.026 7.013 7.013 0 0 1 0 14.026Z" fill="#151618"/></svg><svg fill="none" viewBox="0 0 20 22" id="icon-shop" xmlns="http://www.w3.org/2000/svg"><path fill-rule="evenodd" clip-rule="evenodd" d="m14.592 5-.06-.243c-.267-1.056-.689-2.203-1.376-3.107C12.447.718 11.412 0 10 0 8.588 0 7.553.718 6.844 1.65c-.687.904-1.109 2.051-1.377 3.107L5.408 5H3.786C2.184 5 .857 6.225.75 7.8l-.743 11C-.11 20.532 1.282 22 3.042 22h13.916c1.76 0 3.152-1.468 3.035-3.2l-.743-11C19.143 6.225 17.816 5 16.214 5h-1.622Zm-8.648 5a.986.986 0 0 0 1.014-1.002 6.786 6.786 0 0 1 .007-.306A18.074 18.074 0 0 1 7.107 7h5.786a18.849 18.849 0 0 1 .149 2s0 1 1.014 1 1.014-1.001 1.014-1.001l-.001-.106A20.05 20.05 0 0 0 14.936 7h1.278c.534 0 .977.408 1.012.933l.744 11A1.006 1.006 0 0 1 16.958 20H3.042c-.587 0-1.05-.49-1.012-1.067l.744-11A1.008 1.008 0 0 1 3.786 7h1.278a20.98 20.98 0 0 0-.133 1.893v.104C4.928 9.567 5.364 10 5.943 10ZM7.5 5h5.002c-.234-.847-.553-1.605-.967-2.15C11.102 2.282 10.616 2 10 2s-1.102.282-1.534.85C8.052 3.395 7.734 4.153 7.5 5Z" fill="#151618"/></svg></svg>