<?xml version="1.0" standalone="no"?>
<!DOCTYPE svg PUBLIC "-//W3C//DTD SVG 20010904//EN"
 "http://www.w3.org/TR/2001/REC-SVG-20010904/DTD/svg10.dtd">
<svg version="1.0" xmlns="http://www.w3.org/2000/svg"
 width="700.000000pt" height="700.000000pt" viewBox="0 0 700.000000 700.000000"
 preserveAspectRatio="xMidYMid meet">
<metadata>
Created by potrace 1.14, written by Peter Selinger 2001-2017
</metadata>
<g transform="translate(0.000000,700.000000) scale(0.100000,-0.100000)"
fill="#000000" stroke="none">
<path d="M3710 6980 c-156 -24 -337 -71 -425 -109 -11 -5 -36 -15 -55 -22
-116 -42 -340 -175 -470 -279 -271 -216 -499 -535 -609 -850 -13 -36 -27 -77
-33 -92 l-10 -26 -817 0 c-729 0 -824 -2 -882 -17 -193 -50 -342 -198 -393
-390 -14 -53 -16 -165 -12 -985 2 -509 6 -943 10 -965 4 -22 9 -51 12 -65 2
-14 7 -41 10 -60 3 -19 18 -85 34 -146 95 -362 295 -704 561 -960 66 -64 134
-125 164 -146 5 -4 24 -18 40 -32 50 -39 226 -151 290 -184 118 -60 322 -144
382 -157 10 -2 52 -13 93 -24 158 -42 340 -65 520 -65 91 0 253 10 295 18 11
2 42 7 69 10 27 4 53 8 58 9 5 1 30 -43 54 -97 52 -116 139 -265 229 -390 l64
-90 -218 -215 c-120 -119 -230 -232 -244 -251 -65 -91 -45 -251 41 -327 101
-90 252 -94 353 -10 19 15 125 119 237 230 199 197 204 201 227 187 13 -8 70
-46 127 -85 272 -183 608 -314 925 -359 167 -24 203 -27 368 -26 162 1 175 1
281 15 113 15 153 22 284 55 118 29 233 67 307 101 24 10 45 19 48 19 13 0
216 105 285 148 69 43 210 142 236 166 7 6 31 27 55 46 74 59 221 211 301 310
274 342 439 747 488 1200 5 41 7 518 7 1060 l-2 985 -27 66 c-73 183 -211 306
-395 353 -50 13 -124 16 -387 17 -187 0 -324 4 -321 9 6 9 40 168 51 235 18
112 20 253 19 990 l-1 800 -23 65 c-53 152 -164 265 -318 323 l-58 22 -855 1
c-772 1 -866 0 -970 -16z m1690 -509 c8 -2 4 -1510 -4 -1561 -19 -115 -37
-192 -63 -270 l-28 -85 -275 -2 c-502 -4 -507 -4 -681 -27 -64 -9 -240 -46
-280 -60 -38 -13 -41 -13 -53 8 -8 11 -40 63 -71 115 -165 268 -368 478 -637
657 -170 113 -403 222 -579 269 -35 10 -67 21 -72 25 -9 8 10 56 65 165 137
270 359 488 633 620 169 82 318 126 481 141 38 4 70 7 71 8 2 1 1486 -1 1493
-3z m-3075 -1405 c22 -3 65 -11 95 -17 30 -6 68 -13 84 -15 15 -3 81 -24 145
-46 343 -118 621 -334 820 -637 33 -51 61 -97 61 -101 0 -5 -30 -27 -67 -51
-293 -184 -580 -473 -737 -742 -16 -26 -32 -47 -36 -45 -5 2 -198 190 -430
418 -285 280 -437 423 -468 439 -93 48 -225 26 -300 -49 -54 -54 -76 -106 -76
-185 -1 -104 18 -131 240 -350 106 -104 332 -328 503 -497 l311 -308 -30 -147
c-16 -82 -33 -184 -37 -228 -14 -149 -6 -507 12 -535 3 -5 2 -11 -2 -13 -31
-19 -365 -30 -483 -15 -641 77 -1183 547 -1346 1165 -50 194 -52 236 -53 1129
-1 457 1 833 4 835 7 8 1743 3 1790 -5z m4132 -1048 c11 -9 13 -183 12 -927
-1 -1056 1 -1029 -83 -1341 -12 -42 -60 -159 -101 -242 -202 -408 -577 -735
-1015 -881 -129 -43 -224 -65 -370 -85 -86 -11 -377 -7 -455 7 -38 6 -83 14
-100 17 -115 19 -312 87 -449 155 -86 43 -246 140 -246 150 0 5 391 393 1286
1274 273 269 295 298 296 393 0 118 -48 195 -156 247 -84 41 -219 22 -281 -38
-7 -7 -252 -248 -544 -537 -831 -819 -975 -960 -982 -960 -11 0 -99 138 -150
235 -52 100 -114 259 -136 350 -8 33 -17 69 -19 80 -32 128 -46 376 -31 533
51 535 360 1026 827 1315 215 132 513 234 742 253 40 4 74 8 76 9 2 2 423 3
935 4 656 0 935 -3 944 -11z"/>
</g>
</svg>
